HIERARCHY
ROOT Hips
{
	OFFSET 0.000000 0.000000 0.000000
	CHANNELS 6 Xposition Yposition Zposition Zrotation Yrotation Xrotation 
	JOINT LowerBack
	{
		OFFSET 0.000000 0.000000 0.000000
		CHANNELS 3 Zrotation Yrotation Xrotation
		JOINT Spine
		{
			OFFSET 0.028270 2.035590 -0.193380
			CHANNELS 3 Zrotation Yrotation Xrotation
			JOINT Spine1
			{
				OFFSET 0.056720 2.048850 -0.042750
				CHANNELS 3 Zrotation Yrotation Xrotation
				JOINT Neck
				{
					OFFSET 0.000000 0.000000 0.000000
					CHANNELS 3 Zrotation Yrotation Xrotation
					JOINT Neck1
					{
						OFFSET -0.054170 1.746240 0.172020
						CHANNELS 3 Zrotation Yrotation Xrotation
						JOINT Head
						{
							OFFSET 0.104070 1.761360 -0.123970
							CHANNELS 3 Zrotation Yrotation Xrotation
							End Site
							{
								OFFSET 0.000000 0.000000 0.000000
							}
						}
					}
				}
				JOINT LeftShoulder
				{
					OFFSET 0.000000 0.000000 0.000000
					CHANNELS 3 Zrotation Yrotation Xrotation
					JOINT LeftArm
					{
						OFFSET 3.362410 1.200890 -0.311210
						CHANNELS 3 Zrotation Yrotation Xrotation
						JOINT LeftForeArm
						{
							OFFSET 4.983000 -0.000000 -0.000000
							CHANNELS 3 Zrotation Yrotation Xrotation
							JOINT LeftHand
							{
								OFFSET 3.483560 -0.000000 -0.000000
								CHANNELS 3 Zrotation Yrotation Xrotation
								JOINT LeftFingerBase
								{
									OFFSET 0.000000 0.000000 0.000000
									CHANNELS 3 Zrotation Yrotation Xrotation
									JOINT LeftHandIndex1
									{
										OFFSET 0.715260 -0.000000 -0.000000
										CHANNELS 3 Zrotation Yrotation Xrotation
										End Site
										{
											OFFSET 0.000000 0.000000 0.000000
										}
									}
								}
								JOINT LThumb
								{
									OFFSET 0.000000 0.000000 0.000000
									CHANNELS 3 Zrotation Yrotation Xrotation
									End Site
									{
										OFFSET 0.000000 0.000000 0.000000
									}
								}
							}
						}
					}
				}
				JOINT RightShoulder
				{
					OFFSET 0.000000 0.000000 0.000000
					CHANNELS 3 Zrotation Yrotation Xrotation
					JOINT RightArm
					{
						OFFSET -3.136600 1.374050 -0.404650
						CHANNELS 3 Zrotation Yrotation Xrotation
						JOINT RightForeArm
						{
							OFFSET -5.241900 -0.000000 -0.000000
							CHANNELS 3 Zrotation Yrotation Xrotation
							JOINT RightHand
							{
								OFFSET -3.444170 -0.000000 -0.000000
								CHANNELS 3 Zrotation Yrotation Xrotation
								JOINT RightFingerBase
								{
									OFFSET 0.000000 0.000000 0.000000
									CHANNELS 3 Zrotation Yrotation Xrotation
									JOINT RightHandIndex1
									{
										OFFSET -0.622530 -0.000000 -0.000000
										CHANNELS 3 Zrotation Yrotation Xrotation
										End Site
										{
											OFFSET 0.000000 0.000000 0.000000
										}
									}
								}
								JOINT RThumb
								{
									OFFSET 0.000000 0.000000 0.000000
									CHANNELS 3 Zrotation Yrotation Xrotation
									End Site
									{
										OFFSET 0.000000 0.000000 0.000000
									}
								}
							}
						}
					}
				}
			}
		}
	}
}
}
MOTION
Frames: 9
Frame Time: 0.008333
3.192022 16.946114 1.639624 -41.355530 -65.078254 22.813120 3.581093 -8.441092 3.226548 0.872064 -8.717643 -1.865468 -3.751713 -8.673157 0.624942 9.189136 -24.919051 -6.848912 -0.544510 -0.048109 0.151108 0.000000 0.000000 0.000000 10.926483 7.100038 -1.524990 -53.483965 24.781203 6.936738 -1.627793 -59.477018 0.014080 -5.567858 -0.888924 0.050790 0.029033 0.150000 -0.000000 0.000000 0.000000 0.000000 0.000000 0.000000 0.000000 7.392289 -24.342856 -0.843778 68.066472 -23.118068 -2.924077 3.565243 29.397387 0.009389 3.686763 5.372961 0.170116 0.081112 -0.018199 -0.000000 0.000000 0.000000 0.000000 0.000000 0.000000 0.000000 
3.184112 16.943218 1.632617 -41.317833 -64.460826 22.372951 3.259365 -8.402949 3.043542 0.778838 -8.670942 -1.891532 -3.848281 -8.622751 0.556203 9.298921 -24.897535 -6.896121 -0.570011 -0.049117 0.139739 0.000000 0.000000 0.000000 10.937749 6.972808 -1.536550 -53.248621 24.813394 7.145037 -1.624936 -59.128344 0.013801 -5.554552 -0.898285 0.050986 0.029941 0.147739 -0.000000 0.000000 0.000000 0.000000 0.000000 0.000000 0.000000 7.705161 -24.285987 -0.821298 68.297702 -23.864381 -4.690602 3.670043 28.263646 0.010206 3.828438 5.632651 0.185322 0.083249 -0.020981 -0.000000 0.000000 0.000000 0.000000 0.000000 0.000000 0.000000 
3.178084 16.936635 1.626936 -41.509350 -63.969438 22.107620 3.005776 -8.321945 2.940223 0.690080 -8.582402 -1.903131 -3.958959 -8.529908 0.493660 9.388251 -24.796401 -6.942219 -0.602034 -0.050639 0.127667 0.000000 0.000000 0.000000 10.894580 6.916814 -1.537732 -53.002639 24.804538 7.271942 -1.618588 -58.807469 0.013432 -5.491767 -0.907849 0.050788 0.030028 0.145576 -0.000000 0.000000 0.000000 0.000000 0.000000 0.000000 0.000000 7.997630 -24.134273 -0.787254 68.588410 -24.459986 -6.666973 3.792920 26.881553 0.011104 4.017949 5.886917 0.203429 0.085731 -0.023780 -0.000000 0.000000 0.000000 0.000000 0.000000 0.000000 0.000000 
3.173958 16.926297 1.622262 -41.868852 -63.599348 21.921953 2.800752 -8.207433 2.946981 0.602947 -8.460673 -1.893693 -4.077121 -8.403300 0.437162 9.451838 -24.610488 -6.979719 -0.637882 -0.052563 0.116506 0.000000 0.000000 0.000000 10.803642 6.938583 -1.530719 -52.764888 24.758172 7.301813 -1.610166 -58.496674 0.012978 -5.378183 -0.913977 0.049896 0.029314 0.143546 -0.000000 0.000000 0.000000 0.000000 0.000000 0.000000 0.000000 8.251767 -23.890578 -0.744272 68.935741 -24.876337 -8.884598 3.932486 25.211380 0.012080 4.259033 6.128711 0.224735 0.088491 -0.026643 -0.000000 0.000000 0.000000 0.000000 0.000000 0.000000 0.000000 
3.171203 16.912622 1.617827 -42.310081 -63.347382 21.731868 2.610103 -8.068816 3.065119 0.512372 -8.313883 -1.861902 -4.196525 -8.251247 0.387692 9.488874 -24.341578 -7.001554 -0.675053 -0.054787 0.107986 0.000000 0.000000 0.000000 10.677650 7.041030 -1.518418 -52.550952 24.682889 7.223988 -1.601124 -58.177543 0.012444 -5.214589 -0.913092 0.048308 0.027812 0.141630 -0.000000 0.000000 0.000000 0.000000 0.000000 0.000000 0.000000 8.458023 -23.564618 -0.696411 69.323817 -25.093542 -11.366158 4.085024 23.228865 0.013137 4.543971 6.351283 0.248739 0.091513 -0.029723 -0.000000 0.000000 0.000000 0.000000 0.000000 0.000000 0.000000 
3.169220 16.896520 1.612808 -42.758732 -63.213068 21.502963 2.401022 -7.912458 3.260989 0.414195 -8.147189 -1.813559 -4.312747 -8.079256 0.346665 9.505512 -24.003217 -7.003432 -0.712340 -0.057284 0.103382 0.000000 0.000000 0.000000 10.532159 7.224267 -1.503919 -52.375981 24.589803 7.028379 -1.592944 -57.832415 0.011836 -5.004212 -0.902160 0.045824 0.025494 0.139759 -0.000000 0.000000 0.000000 0.000000 0.000000 0.000000 0.000000 8.623450 -23.175034 -0.649422 69.711246 -25.107990 -14.072107 4.241662 20.951545 0.014258 4.833038 6.539497 0.272642 0.094867 -0.033153 -0.000000 0.000000 0.000000 0.000000 0.000000 0.000000 0.000000 
3.167541 16.879414 1.606935 -43.166173 -63.163087 21.266563 2.168452 -7.750509 3.462923 0.311534 -7.972562 -1.765072 -4.423320 -7.900020 0.315856 9.508372 -23.606968 -6.984104 -0.749864 -0.060108 0.103424 0.000000 0.000000 0.000000 10.372158 7.484013 -1.488454 -52.250096 24.490801 6.705877 -1.587509 -57.447757 0.011167 -4.751955 -0.878454 0.042445 0.022259 0.137861 -0.000000 0.000000 0.000000 0.000000 0.000000 0.000000 0.000000 8.759235 -22.740760 -0.609142 70.053466 -24.924657 -17.002803 4.393899 18.403800 0.015446 5.094427 6.691687 0.294343 0.098546 -0.037209 -0.000000 0.000000 0.000000 0.000000 0.000000 0.000000 0.000000 
3.166100 16.862721 1.600357 -43.528023 -63.213865 21.033535 1.900807 -7.580124 3.647334 0.203025 -7.786818 -1.717927 -4.527388 -7.710329 0.294713 9.506591 -23.170138 -6.944138 -0.789215 -0.063405 0.108439 0.000000 0.000000 0.000000 10.198772 7.817458 -1.473416 -52.182066 24.396130 6.246480 -1.586323 -57.013635 0.010446 -4.463830 -0.841089 0.038271 0.018092 0.135822 -0.000000 0.000000 0.000000 0.000000 0.000000 0.000000 0.000000 8.887988 -22.274116 -0.580706 70.299284 -24.565107 -20.098230 4.528965 15.658816 0.016665 5.274390 6.803675 0.309944 0.102498 -0.042073 -0.000000 0.000000 0.000000 0.000000 0.000000 0.000000 0.000000 
3.164632 16.847834 1.593401 -43.831346 -63.355560 20.815325 1.596798 -7.403696 3.788867 0.089792 -7.592617 -1.677189 -4.623913 -7.512944 0.282042 9.507864 -22.712230 -6.886885 -0.831448 -0.067225 0.117964 0.000000 0.000000 0.000000 10.011756 8.215749 -1.459074 -52.178051 24.314375 5.645481 -1.590914 -56.524489 0.009684 -4.146705 -0.790206 0.033702 0.013026 0.133601 -0.000000 0.000000 0.000000 0.000000 0.000000 0.000000 0.000000 9.028700 -21.792547 -0.567881 70.407925 -24.063086 -23.273779 4.634540 12.808613 0.017872 5.323116 6.889096 0.316844 0.106611 -0.047817 -0.000000 0.000000 0.000000 0.000000 0.000000 0.000000 0.000000 
